<svg xmlns="http://www.w3.org/2000/svg" width="19.58" height="19.58" viewBox="0 0 19.58 19.58">
  <path id="Icon_awesome-facebook-square" data-name="Icon awesome-facebook-square" d="M17.482,2.25H2.1A2.1,2.1,0,0,0,0,4.348V19.732a2.1,2.1,0,0,0,2.1,2.1h6V15.173H5.343V12.04H8.1V9.652c0-2.716,1.617-4.217,4.094-4.217a16.681,16.681,0,0,1,2.426.212V8.313H13.25a1.567,1.567,0,0,0-1.767,1.693V12.04h3.006l-.481,3.133H11.483V21.83h6a2.1,2.1,0,0,0,2.1-2.1V4.348a2.1,2.1,0,0,0-2.1-2.1Z" transform="translate(0 -2.25)" fill="#fff"/>
</svg>
