<svg xmlns="http://www.w3.org/2000/svg" width="19.58" height="19.58" viewBox="0 0 19.58 19.58">
  <path id="Icon_awesome-twitter-square" data-name="Icon awesome-twitter-square" d="M17.482,2.25H2.1A2.1,2.1,0,0,0,0,4.348V19.732a2.1,2.1,0,0,0,2.1,2.1H17.482a2.1,2.1,0,0,0,2.1-2.1V4.348A2.1,2.1,0,0,0,17.482,2.25ZM15.345,9.19c.009.122.009.249.009.371A8.1,8.1,0,0,1,7.2,17.717a8.118,8.118,0,0,1-4.4-1.285,6.038,6.038,0,0,0,.691.035,5.747,5.747,0,0,0,3.558-1.224,2.87,2.87,0,0,1-2.679-1.989A3.089,3.089,0,0,0,5.66,13.2a2.867,2.867,0,0,1-2.295-2.815v-.035a2.864,2.864,0,0,0,1.294.363A2.86,2.86,0,0,1,3.383,8.329a2.831,2.831,0,0,1,.389-1.447,8.139,8.139,0,0,0,5.909,3,2.873,2.873,0,0,1,4.891-2.618,5.617,5.617,0,0,0,1.818-.691A2.859,2.859,0,0,1,15.131,8.15,5.7,5.7,0,0,0,16.783,7.7,6.033,6.033,0,0,1,15.345,9.19Z" transform="translate(0 -2.25)" fill="#fff"/>
</svg>
