<svg xmlns="http://www.w3.org/2000/svg" width="26.101" height="19.58" viewBox="0 0 26.101 19.58">
  <path id="Icon_ionic-logo-youtube" data-name="Icon ionic-logo-youtube" d="M25.931,8.824a3.963,3.963,0,0,0-3.773-4.14c-2.825-.133-5.705-.184-8.647-.184h-.918c-2.937,0-5.823.051-8.647.184A3.972,3.972,0,0,0,.178,8.834C.051,10.649-.005,12.464,0,14.279s.051,3.63.173,5.45a3.977,3.977,0,0,0,3.768,4.155c2.967.138,6.011.2,9.106.194q4.65.015,9.106-.194a3.977,3.977,0,0,0,3.773-4.155c.122-1.82.178-3.635.173-5.456Q26.115,11.551,25.931,8.824ZM10.554,19.281V9.262l7.393,5.007Z" transform="translate(0 -4.5)" fill="#fff"/>
</svg>
